<mxfile host="Electron" modified="2024-03-22T09:49:57.338Z" agent="Mozilla/5.0 (Macintosh; Intel Mac OS X 10_15_7) AppleWebKit/537.36 (KHTML, like Gecko) draw.io/24.0.4 Chrome/120.0.6099.109 Electron/28.1.0 Safari/537.36" etag="nDSxfktTaSxIuZVGwTGL" version="24.0.4" type="device">
  <diagram name="Page-1" id="vk1SHBOLeHlWBtkvY_T2">
    <mxGraphModel dx="2187" dy="1221" grid="1" gridSize="10" guides="1" tooltips="1" connect="1" arrows="1" fold="1" page="1" pageScale="1" pageWidth="827" pageHeight="1169" math="0" shadow="0">
      <root>
        <mxCell id="0" />
        <mxCell id="1" parent="0" />
        <mxCell id="4nOFmapIMfM1m-pJOdBP-13" style="rounded=0;orthogonalLoop=1;jettySize=auto;html=1;fontSize=18;" edge="1" parent="1" source="4nOFmapIMfM1m-pJOdBP-1" target="4nOFmapIMfM1m-pJOdBP-4">
          <mxGeometry relative="1" as="geometry" />
        </mxCell>
        <mxCell id="4nOFmapIMfM1m-pJOdBP-1" value="API fetch" style="rounded=0;whiteSpace=wrap;html=1;fontSize=18;" vertex="1" parent="1">
          <mxGeometry x="-120" y="870" width="120" height="60" as="geometry" />
        </mxCell>
        <mxCell id="4nOFmapIMfM1m-pJOdBP-10" style="edgeStyle=orthogonalEdgeStyle;rounded=0;orthogonalLoop=1;jettySize=auto;html=1;fontSize=18;" edge="1" parent="1" source="4nOFmapIMfM1m-pJOdBP-2" target="4nOFmapIMfM1m-pJOdBP-6">
          <mxGeometry relative="1" as="geometry" />
        </mxCell>
        <mxCell id="4nOFmapIMfM1m-pJOdBP-2" value="&lt;font color=&quot;#6a8759&quot; style=&quot;font-size: 18px;&quot;&gt;question list&lt;/font&gt;" style="rounded=0;whiteSpace=wrap;html=1;fontSize=18;" vertex="1" parent="1">
          <mxGeometry x="-120" y="270" width="120" height="60" as="geometry" />
        </mxCell>
        <mxCell id="4nOFmapIMfM1m-pJOdBP-3" value="question detail" style="rounded=0;whiteSpace=wrap;html=1;fontSize=18;" vertex="1" parent="1">
          <mxGeometry x="810" y="525" width="120" height="60" as="geometry" />
        </mxCell>
        <mxCell id="4nOFmapIMfM1m-pJOdBP-14" style="edgeStyle=orthogonalEdgeStyle;rounded=0;orthogonalLoop=1;jettySize=auto;html=1;entryX=0.5;entryY=0;entryDx=0;entryDy=0;fontSize=18;" edge="1" parent="1" source="4nOFmapIMfM1m-pJOdBP-4" target="4nOFmapIMfM1m-pJOdBP-8">
          <mxGeometry relative="1" as="geometry" />
        </mxCell>
        <mxCell id="4nOFmapIMfM1m-pJOdBP-19" value="持久缓存" style="edgeLabel;html=1;align=center;verticalAlign=middle;resizable=0;points=[];fontSize=18;" vertex="1" connectable="0" parent="4nOFmapIMfM1m-pJOdBP-14">
          <mxGeometry x="-0.1333" y="-1" relative="1" as="geometry">
            <mxPoint as="offset" />
          </mxGeometry>
        </mxCell>
        <mxCell id="4nOFmapIMfM1m-pJOdBP-15" style="edgeStyle=orthogonalEdgeStyle;rounded=0;orthogonalLoop=1;jettySize=auto;html=1;entryX=1;entryY=0.5;entryDx=0;entryDy=0;fontSize=18;" edge="1" parent="1" source="4nOFmapIMfM1m-pJOdBP-4" target="4nOFmapIMfM1m-pJOdBP-2">
          <mxGeometry relative="1" as="geometry">
            <Array as="points">
              <mxPoint x="500" y="300" />
            </Array>
          </mxGeometry>
        </mxCell>
        <mxCell id="4nOFmapIMfM1m-pJOdBP-16" value="返回数据" style="edgeLabel;html=1;align=center;verticalAlign=middle;resizable=0;points=[];fontSize=18;" vertex="1" connectable="0" parent="4nOFmapIMfM1m-pJOdBP-15">
          <mxGeometry x="0.1229" y="-1" relative="1" as="geometry">
            <mxPoint as="offset" />
          </mxGeometry>
        </mxCell>
        <mxCell id="4nOFmapIMfM1m-pJOdBP-4" value="store" style="rounded=0;whiteSpace=wrap;html=1;fontSize=18;" vertex="1" parent="1">
          <mxGeometry x="220" y="505" width="530" height="180" as="geometry" />
        </mxCell>
        <mxCell id="4nOFmapIMfM1m-pJOdBP-5" value="&lt;font color=&quot;#6a8759&quot; style=&quot;font-size: 18px;&quot;&gt;favorites&lt;/font&gt;" style="rounded=0;whiteSpace=wrap;html=1;fontSize=18;" vertex="1" parent="1">
          <mxGeometry x="810" y="345" width="120" height="60" as="geometry" />
        </mxCell>
        <mxCell id="4nOFmapIMfM1m-pJOdBP-11" style="edgeStyle=orthogonalEdgeStyle;rounded=0;orthogonalLoop=1;jettySize=auto;html=1;entryX=0.5;entryY=0;entryDx=0;entryDy=0;fontSize=18;" edge="1" parent="1" source="4nOFmapIMfM1m-pJOdBP-6" target="4nOFmapIMfM1m-pJOdBP-1">
          <mxGeometry relative="1" as="geometry" />
        </mxCell>
        <mxCell id="4nOFmapIMfM1m-pJOdBP-12" value="是" style="edgeLabel;html=1;align=center;verticalAlign=middle;resizable=0;points=[];fontSize=18;" vertex="1" connectable="0" parent="4nOFmapIMfM1m-pJOdBP-11">
          <mxGeometry x="-0.2545" y="1" relative="1" as="geometry">
            <mxPoint as="offset" />
          </mxGeometry>
        </mxCell>
        <mxCell id="4nOFmapIMfM1m-pJOdBP-17" style="edgeStyle=orthogonalEdgeStyle;rounded=0;orthogonalLoop=1;jettySize=auto;html=1;fontSize=18;" edge="1" parent="1" source="4nOFmapIMfM1m-pJOdBP-6" target="4nOFmapIMfM1m-pJOdBP-4">
          <mxGeometry relative="1" as="geometry" />
        </mxCell>
        <mxCell id="4nOFmapIMfM1m-pJOdBP-18" value="否" style="edgeLabel;html=1;align=center;verticalAlign=middle;resizable=0;points=[];fontSize=18;" vertex="1" connectable="0" parent="4nOFmapIMfM1m-pJOdBP-17">
          <mxGeometry x="0.1013" relative="1" as="geometry">
            <mxPoint as="offset" />
          </mxGeometry>
        </mxCell>
        <mxCell id="4nOFmapIMfM1m-pJOdBP-6" value="是否首次打开页面" style="rhombus;whiteSpace=wrap;html=1;fontSize=18;" vertex="1" parent="1">
          <mxGeometry x="-140" y="510" width="160" height="170" as="geometry" />
        </mxCell>
        <mxCell id="4nOFmapIMfM1m-pJOdBP-8" value="localstoage" style="rounded=0;whiteSpace=wrap;html=1;fontSize=18;" vertex="1" parent="1">
          <mxGeometry x="220" y="840" width="530" height="180" as="geometry" />
        </mxCell>
        <mxCell id="4nOFmapIMfM1m-pJOdBP-23" style="edgeStyle=orthogonalEdgeStyle;rounded=0;orthogonalLoop=1;jettySize=auto;html=1;fontSize=18;" edge="1" parent="1" source="4nOFmapIMfM1m-pJOdBP-9" target="4nOFmapIMfM1m-pJOdBP-2">
          <mxGeometry relative="1" as="geometry" />
        </mxCell>
        <mxCell id="4nOFmapIMfM1m-pJOdBP-9" value="" style="shape=mxgraph.signs.healthcare.infectious_disease;html=1;pointerEvents=1;fillColor=#000000;strokeColor=none;verticalLabelPosition=bottom;verticalAlign=top;align=center;fontSize=18;" vertex="1" parent="1">
          <mxGeometry x="-240" y="100" width="98" height="98" as="geometry" />
        </mxCell>
        <mxCell id="4nOFmapIMfM1m-pJOdBP-21" value="类似的逻辑" style="text;html=1;align=center;verticalAlign=middle;whiteSpace=wrap;rounded=0;fontSize=18;" vertex="1" parent="1">
          <mxGeometry x="820" y="190" width="80" height="40" as="geometry" />
        </mxCell>
        <mxCell id="4nOFmapIMfM1m-pJOdBP-24" value="&lt;div style=&quot;background-color: rgb(43, 43, 43); color: rgb(169, 183, 198); font-size: 18px;&quot;&gt;&lt;pre style=&quot;font-family: &amp;quot;JetBrains Mono&amp;quot;, monospace; font-size: 18px;&quot;&gt;&lt;span style=&quot;color: rgb(232, 191, 106); font-size: 18px;&quot;&gt;&amp;lt;Route &lt;/span&gt;&lt;span style=&quot;color: rgb(186, 186, 186); font-size: 18px;&quot;&gt;path&lt;/span&gt;&lt;span style=&quot;color: rgb(106, 135, 89); font-size: 18px;&quot;&gt;=&quot;/question/:id&quot; &lt;/span&gt;&lt;span style=&quot;color: rgb(186, 186, 186); font-size: 18px;&quot;&gt;element&lt;/span&gt;&lt;span style=&quot;color: rgb(106, 135, 89); font-size: 18px;&quot;&gt;=&lt;/span&gt;{&lt;span style=&quot;color: rgb(232, 191, 106); font-size: 18px;&quot;&gt;&amp;lt;QuestionDetails /&amp;gt;&lt;/span&gt;} &lt;span style=&quot;color: rgb(232, 191, 106); font-size: 18px;&quot;&gt;/&amp;gt;&lt;/span&gt;&lt;/pre&gt;&lt;/div&gt;" style="text;whiteSpace=wrap;html=1;fontSize=18;" vertex="1" parent="1">
          <mxGeometry x="780" y="435" width="560" height="90" as="geometry" />
        </mxCell>
        <mxCell id="4nOFmapIMfM1m-pJOdBP-25" value="&lt;div style=&quot;background-color: rgb(43, 43, 43); color: rgb(169, 183, 198); font-size: 18px;&quot;&gt;&lt;pre style=&quot;font-family: &amp;quot;JetBrains Mono&amp;quot;, monospace; font-size: 18px;&quot;&gt;&lt;span style=&quot;color: rgb(232, 191, 106); font-size: 18px;&quot;&gt;&amp;lt;Route &lt;/span&gt;&lt;span style=&quot;color: rgb(186, 186, 186); font-size: 18px;&quot;&gt;path&lt;/span&gt;&lt;span style=&quot;color: rgb(106, 135, 89); font-size: 18px;&quot;&gt;=&quot;/favorites&quot; &lt;/span&gt;&lt;span style=&quot;color: rgb(186, 186, 186); font-size: 18px;&quot;&gt;element&lt;/span&gt;&lt;span style=&quot;color: rgb(106, 135, 89); font-size: 18px;&quot;&gt;=&lt;/span&gt;{&lt;span style=&quot;color: rgb(232, 191, 106); font-size: 18px;&quot;&gt;&amp;lt;FavoritesList /&amp;gt;&lt;/span&gt;} &lt;span style=&quot;color: rgb(232, 191, 106); font-size: 18px;&quot;&gt;/&amp;gt;&lt;br style=&quot;font-size: 18px;&quot;&gt;&lt;/span&gt;&lt;/pre&gt;&lt;/div&gt;" style="text;whiteSpace=wrap;html=1;fontSize=18;" vertex="1" parent="1">
          <mxGeometry x="770" y="240" width="560" height="90" as="geometry" />
        </mxCell>
        <mxCell id="4nOFmapIMfM1m-pJOdBP-26" value="&lt;div style=&quot;background-color: rgb(43, 43, 43); color: rgb(169, 183, 198); font-size: 18px;&quot;&gt;&lt;pre style=&quot;font-family: &amp;quot;JetBrains Mono&amp;quot;, monospace; font-size: 18px;&quot;&gt;&lt;span style=&quot;color: rgb(232, 191, 106); font-size: 18px;&quot;&gt;&amp;lt;Route &lt;/span&gt;&lt;span style=&quot;color: rgb(186, 186, 186); font-size: 18px;&quot;&gt;path&lt;/span&gt;&lt;span style=&quot;color: rgb(106, 135, 89); font-size: 18px;&quot;&gt;=&quot;/&quot; &lt;/span&gt;&lt;span style=&quot;color: rgb(186, 186, 186); font-size: 18px;&quot;&gt;element&lt;/span&gt;&lt;span style=&quot;color: rgb(106, 135, 89); font-size: 18px;&quot;&gt;=&lt;/span&gt;{&lt;span style=&quot;color: rgb(232, 191, 106); font-size: 18px;&quot;&gt;&amp;lt;QuestionBank /&amp;gt;&lt;/span&gt;} &lt;span style=&quot;color: rgb(232, 191, 106); font-size: 18px;&quot;&gt;/&amp;gt;&lt;br style=&quot;font-size: 18px;&quot;&gt;&lt;/span&gt;&lt;/pre&gt;&lt;/div&gt;" style="text;whiteSpace=wrap;html=1;fontSize=18;" vertex="1" parent="1">
          <mxGeometry x="-350" y="310" width="560" height="90" as="geometry" />
        </mxCell>
      </root>
    </mxGraphModel>
  </diagram>
</mxfile>
